<svg width="24" height="24" viewBox="0 0 24 24" fill="none" xmlns="http://www.w3.org/2000/svg">
  <path d="M10.325 4.317c.426-1.756 2.924-1.756 3.35 0a1.724 1.724 0 002.573 1.066c1.543-.94 3.31.826 2.37 2.37a1.724 1.724 0 001.065-2.572c1.756.426 1.756 2.924-.001 3.35a2.04 2.04 0 01-1.016-.507 2.04 2.04 0 01-2.573-1.065c-.94 1.543-.826 3.31-.826 2.37 0 1.724 1.724 0 00-1.065 2.573C12.794 12.165 11.037 11.839 9.494 11.839c-1.756 0-2.924 1.756-3.35 2.04a2.04 2.04 0 01-.507 1.016 2.04 2.04 0 01-1.066 2.573c1.543.94 3.31.826 2.37.826 0 1.724-1.724 0 002.572-1.065zm-3.35-6.725a8.974 8.974 0 013.834-1.834L12.858 4.5a.25.25 0 00-.177-.073H11.32a.25.25 0 00-.177.073L9.19 6.758a8.974 8.974 0 013.834 1.834 8.974 8.974 0 01-6.75 3.834L5.75 12.5a.25.25 0 00-.073.177l1.834 3.834a8.974 8.974 0 01-1.834 6.75l1.834-3.834a.25.25 0 00.177-.073l1.834-3.834zm6.75 3.834a6.494 6.494 0 01-1.834 4.756l-1.834-3.834a6.494 6.494 0 014.756-1.834l-1.834 3.834a6.494 6.494 0 011.834-4.756l1.834 3.834z" fill="url(#gradient1)"/>
  <defs>
    <linearGradient id="gradient1" x1="0" y1="0" x2="24" y2="24" gradientUnits="userSpaceOnUse">
      <stop stop-color="#6B7280"/>
      <stop offset="1" stop-color="#9CA3AF"/>
    </linearGradient>
  </defs>
</svg>
